<svg height="511pt" viewBox="-45 0 511 511.99905" width="511pt" xmlns="http://www.w3.org/2000/svg"><path d="m415.109375 282.765625c-3.570313-4.519531-8.226563-7.863281-13.453125-9.800781 3.886719-8.859375 5.976562-18.496094 5.976562-28.339844v-3.539062c0-30.652344-19.546874-56.820313-46.824218-66.710938 8.75-10.710938 13.96875-24.09375 13.96875-38.609375 0-35.042969-30.351563-63.550781-67.65625-63.550781h-24.527344c-22.375-55.558594-78.792969-71.042969-81.332031-71.710938-5.511719-1.453125-11.375.300782-15.179688 4.546875-3.808593 4.242188-4.914062 10.261719-2.871093 15.585938 9.480468 24.664062 5.804687 38.417969.460937 51.578125h-68.699219c-37.304687 0-67.65625 28.507812-67.65625 63.550781 0 14.515625 5.21875 27.898437 13.96875 38.609375-27.28125 9.890625-46.824218 36.058594-46.824218 66.710938v3.539062c0 9.867188 2.097656 19.523438 6 28.398438-5.199219 1.964843-9.828126 5.324218-13.375 9.851562-5.898438 7.53125-7.964844 17.179688-5.671876 26.464844l44.242188 179.164062c3.417969 13.832032 15.753906 23.496094 30.003906 23.496094h272.734375c14.386719 0 26.753907-9.777344 30.074219-23.777344l42.472656-179.160156c2.191406-9.253906.066406-18.839844-5.832031-26.296875zm-300.136719-180.175781h78.8125c6.179688 0 11.742188-3.742188 14.066406-9.464844.574219-1.410156 1.179688-2.832031 1.792969-4.285156 4.914063-11.597656 11.074219-26.136719 9.578125-46.78125 14.359375 9.339844 30.773438 24.914062 38.003906 49.609375 1.894532 6.472656 7.828126 10.921875 14.574219 10.921875h35.320313c20.558594 0 37.28125 14.882812 37.28125 33.175781s-16.722656 33.175781-37.28125 33.175781h-192.148438c-20.554687 0-37.28125-14.882812-37.28125-33.175781s16.722656-33.175781 37.28125-33.175781zm-70.136718 138.496094c0-22.363282 18.195312-40.558594 40.558593-40.558594h251.304688c22.363281 0 40.558593 18.195312 40.558593 40.558594v3.539062c0 9.699219-3.558593 19.0625-9.886718 26.402344h-312.644532c-6.328124-7.339844-9.890624-16.703125-9.890624-26.402344zm346.546874 60.96875-42.472656 179.164062c-.054687.238281-.269531.40625-.515625.40625h-272.734375c-.246094 0-.457031-.167969-.515625-.402344l-44.242187-179.164062c-.027344-.109375-.0625-.25.097656-.453125s.304688-.203125.417969-.203125h359.449219c.113281 0 .257812 0 .417968.199218.15625.203126.125.34375.097656.453126zm0 0"/><path d="m211.046875 344.820312c-8.386719 0-15.1875 6.800782-15.1875 15.1875v85.132813c0 8.386719 6.800781 15.1875 15.1875 15.1875 8.390625 0 15.1875-6.800781 15.1875-15.1875v-85.132813c0-8.386718-6.796875-15.1875-15.1875-15.1875zm0 0"/><path d="m316.480469 345.105469c-8.222657-1.621094-16.214844 3.734375-17.835938 11.964843l-16.769531 85.136719c-1.621094 8.226563 3.738281 16.214844 11.96875 17.835938.988281.195312 1.976562.289062 2.949219.289062 7.109375 0 13.460937-5.019531 14.882812-12.257812l16.769531-85.132813c1.625-8.230468-3.734374-16.214844-11.964843-17.835937zm0 0"/><path d="m123.449219 357.070312c-1.621094-8.230468-9.605469-13.585937-17.835938-11.964843-8.230469 1.621093-13.585937 9.605469-11.964843 17.835937l16.769531 85.132813c1.425781 7.242187 7.773437 12.257812 14.882812 12.257812.972657 0 1.960938-.09375 2.953125-.289062 8.230469-1.621094 13.585938-9.609375 11.964844-17.835938zm0 0"/></svg>