<?xml version="1.0" encoding="utf-8"?>
<!-- Generator: Adobe Illustrator 16.0.0, SVG Export Plug-In . SVG Version: 6.00 Build 0)  -->
<!DOCTYPE svg PUBLIC "-//W3C//DTD SVG 1.1//EN" "http://www.w3.org/Graphics/SVG/1.1/DTD/svg11.dtd">
<svg version="1.1" id="Calque_1" xmlns="http://www.w3.org/2000/svg" xmlns:xlink="http://www.w3.org/1999/xlink" x="0px" y="0px"
	 width="511px" height="511px" viewBox="0 0 511 511" enable-background="new 0 0 511 511" xml:space="preserve">
<path fill="#231F20" d="M510.329,122.238c-0.721-3.688-3.164-6.511-6.234-7.188c-22.738-5.026-50.673-22.548-77.689-39.492
	C389.743,52.565,355.114,30.847,332.2,39.8c-22.528,8.801-47.344,29.458-41.549,77.862c-10.455,4.69-16.957,4.798-27.304,4.862
	v-46.3c13.778-4.266,24.013-19.435,24.013-37.493C287.36,17.375,273.067,0,255.5,0c-17.568,0-31.86,17.375-31.86,38.732
	c0,18.058,10.234,33.227,24.014,37.493v46.3c-10.348-0.064-16.85-0.172-27.304-4.862c5.794-48.404-19.021-69.061-41.55-77.862
	c-22.915-8.954-57.543,12.765-94.205,35.758c-27.016,16.944-54.951,34.466-77.691,39.492c-3.066,0.677-5.513,3.5-6.232,7.188
	c-0.717,3.688,0.429,7.544,2.92,9.823c71.915,65.76,209.223,71.192,244.062,71.482v110.842c-1.977-0.119-3.945-0.232-5.9-0.342
	c-36.502-2.072-60.428-5.028-60.428-26.403c0-8.81,2.08-15.609,6.356-20.786c7.028-8.508,19.87-12.771,38.122-12.677
	c4.338-0.001,7.862-4.231,7.881-9.499c0.018-5.27-3.479-9.559-7.814-9.582c-8.424-0.044-34.049-0.177-49.262,18.236
	c-7.285,8.817-10.979,20.361-10.979,34.308c0,18.874,9.021,31.793,26.811,38.398c4.268,1.585,8.932,2.774,13.85,3.689
	c-6.778,6.135-11.054,14.843-11.368,27.376c-0.598,23.772,15.298,35.21,33.413,42.572c-10.805,6.191-18.39,14.985-18.39,29.554
	c0,16.653,7.866,26.784,19.96,34.192c-0.978,0.331-1.939,0.651-2.926,0.993c-4.166,1.444-6.581,6.724-5.393,11.791
	c0.983,4.192,4.125,6.925,7.541,6.924c0.715,0,1.438-0.118,2.157-0.366c4.466-1.55,8.843-2.992,13.079-4.389
	c1.104-0.363,2.199-0.726,3.289-1.087v30.071c0,5.269,3.514,9.539,7.847,9.539c4.335,0,7.848-4.271,7.848-9.539v-30.071
	c1.091,0.361,2.185,0.724,3.286,1.087c4.238,1.396,8.616,2.839,13.082,4.389c0.719,0.248,1.442,0.366,2.154,0.366
	c3.417,0,6.561-2.731,7.543-6.924c1.189-5.067-1.225-10.347-5.395-11.791c-0.984-0.342-1.945-0.662-2.924-0.993
	c12.096-7.408,19.959-17.539,19.959-34.192c0-14.568-7.584-23.362-18.39-29.554c18.115-7.362,34.013-18.8,33.415-42.572
	c-0.316-12.533-4.59-21.241-11.367-27.376c4.914-0.915,9.578-2.104,13.85-3.689c17.789-6.605,26.809-19.524,26.809-38.398
	c0-13.946-3.694-25.49-10.979-34.308c-15.213-18.412-40.836-18.278-49.262-18.236c-4.335,0.023-7.832,4.312-7.814,9.582
	c0.02,5.268,3.562,9.445,7.881,9.499c18.262-0.106,31.094,4.169,38.121,12.677c4.279,5.177,6.357,11.977,6.357,20.786
	c0,21.375-23.926,24.331-60.428,26.403c-1.954,0.109-3.924,0.223-5.899,0.342V203.543c34.849-0.29,172.149-5.726,244.062-71.482
	C509.901,129.782,511.047,125.926,510.329,122.238z M239.335,38.732c0-10.836,7.252-19.653,16.165-19.653
	c8.914,0,16.166,8.817,16.166,19.653s-7.252,19.651-16.166,19.651C246.587,58.383,239.335,49.568,239.335,38.732z M91.79,92.514
	c32.201-20.194,65.498-41.078,82.207-34.55c26.24,10.255,35.719,30.465,29.825,63.611c-0.79,4.44,1.106,8.94,4.53,10.758
	c17.054,9.051,26.454,9.191,39.301,9.272v42.816c-13.959-0.191-45.361-1.305-82.1-6.976c6.538-3.354,12.68-6.511,15.774-8.118
	c3.984-2.071,5.835-7.676,4.134-12.522c-1.704-4.843-6.316-7.093-10.301-5.023c-8.162,4.241-37.707,19.355-39.367,20.206
	c-15.107-3.244-30.545-7.33-45.594-12.469c25.095-8.036,55.214-21.408,60.014-23.562c4.065-1.824,6.146-7.31,4.646-12.252
	c-1.499-4.942-6.012-7.471-10.078-5.647c-25.745,11.547-71.081,29.476-83.085,28.458c-0.943-0.081-1.852,0.078-2.711,0.378
	c-11.29-5.392-22.007-11.551-31.781-18.597C47.786,120.114,70.075,106.135,91.79,92.514z M210.61,357.687
	c0.383-15.249,14.363-20.397,37.043-22.884v51.789C224.831,379.358,210.229,372.768,210.61,357.687z M225.642,429.229
	c0-8.253,9.791-13.511,22.012-17.88v40.377C233.394,445.804,225.642,439.66,225.642,429.229z M285.36,429.229
	c0,10.431-7.754,16.574-22.013,22.497V411.35C275.568,415.719,285.36,420.977,285.36,429.229z M263.348,386.592v-51.789
	c22.679,2.486,36.659,7.635,37.042,22.884C300.771,372.768,286.169,379.358,263.348,386.592z M452.017,146.893
	c-0.859-0.301-1.768-0.458-2.714-0.376c-12.021,1.023-57.335-16.912-83.085-28.458c-4.064-1.824-8.578,0.705-10.077,5.648
	c-1.499,4.941,0.579,10.427,4.645,12.251c4.801,2.153,34.921,15.525,60.016,23.562c-15.05,5.14-30.485,9.226-45.593,12.469
	c-1.65-0.845-31.203-15.965-39.369-20.206c-3.986-2.069-8.598,0.18-10.299,5.023c-1.704,4.847,0.146,10.452,4.133,12.522
	c3.095,1.607,9.236,4.764,15.773,8.119c-36.74,5.67-68.145,6.784-82.099,6.975v-42.816c12.847-0.081,22.245-0.222,39.3-9.272
	c3.426-1.818,5.32-6.318,4.531-10.758c-5.895-33.146,3.584-53.356,29.826-63.611c16.708-6.527,50.004,14.356,82.205,34.55
	c21.715,13.621,44.004,27.6,64.587,35.784C474.022,135.343,463.306,141.503,452.017,146.893z"/>
</svg>
