<?xml version="1.0" encoding="iso-8859-1"?>
<!-- Generator: Adobe Illustrator 19.0.0, SVG Export Plug-In . SVG Version: 6.00 Build 0)  -->
<svg version="1.1" id="Layer_1" xmlns="http://www.w3.org/2000/svg" xmlns:xlink="http://www.w3.org/1999/xlink" x="0px" y="0px"
	 viewBox="0 0 512.001 512.001" style="enable-background:new 0 0 512.001 512.001;" xml:space="preserve">
<g>
	<g>
		<path d="M228.23,0c-36.824,0-66.783,29.959-66.783,66.783c0,36.824,29.959,66.783,66.783,66.783
			c36.824,0,66.783-29.959,66.783-66.783C295.013,29.959,265.054,0,228.23,0z M228.23,100.174
			c-18.412,0-33.391-14.979-33.391-33.391c0-18.412,14.979-33.391,33.391-33.391c18.412,0,33.391,14.979,33.391,33.391
			C261.621,85.195,246.642,100.174,228.23,100.174z"/>
	</g>
</g>
<g>
	<g>
		<path d="M389.621,311.765h-50.198v-50.199c0-12.819-4.734-24.523-12.683-33.391c0.309-0.345,0.611-0.697,0.91-1.051
			c11.911,11.006,27.818,17.746,45.275,17.746c36.824,0,66.783-29.959,66.783-66.783s-29.959-66.783-66.783-66.783
			c-26.878,0-50.083,15.97-60.665,38.911c-6.847-3.519-14.599-5.408-22.813-5.408h-54.965l-56.211-28.225
			c-17.664-8.815-38.852-6.456-54.089,5.996c-52.156,39.917-85.169,103.819-85.169,172.378v166.956
			C39.013,489.531,61.482,512,89.1,512c27.618,0,49.976-22.469,49.976-50.087V294.957c0-26.368,9.373-52.395,25.83-73.05
			l35.358,17.68c6.913,3.457,14.66,5.285,22.401,5.285h19.567c-1.853,5.226-2.872,10.843-2.872,16.696v66.783
			c0,18.778,6.236,36.125,16.741,50.087h-0.046c-9.22,0-16.696,7.475-16.696,16.696v100.174c0,9.22,7.475,16.696,16.696,16.696
			h133.565c4.612,0,8.789-1.871,11.81-4.895c6.539,3.135,13.858,4.895,21.581,4.895c27.618,0,49.976-22.469,49.976-50.087v-66.783
			C472.988,349.102,435.651,311.765,389.621,311.765z M372.926,144.696c18.412,0,33.391,14.979,33.391,33.391
			c0,18.412-14.979,33.391-33.391,33.391c-18.412,0-33.391-14.979-33.391-33.391C339.534,159.675,354.514,144.696,372.926,144.696z
			 M222.665,211.59c-2.585,0-5.167-0.719-7.469-1.871l-46.808-23.404c-6.477-3.237-14.304-1.932-19.379,3.234
			c-27.463,27.966-43.214,66.385-43.214,105.407v166.956c0,9.206-7.49,16.696-16.696,16.696c-9.206,0-16.807-7.49-16.807-16.696
			V294.957c0-57.45,27.649-111.883,72.392-146.021c0.179-0.137,0.356-0.278,0.531-0.422c5.08-4.213,12.202-5.018,18.134-2.059
			l59.723,29.87c2.318,1.16,4.875,1.763,7.467,1.763h58.908c9.206,0,16.696,7.49,16.696,16.696c0,9.206-7.49,16.807-16.696,16.807
			H222.665z M372.926,478.72H272.641v-66.894c10.637,0,89.971,0,100.285,0C372.926,419.498,372.926,471.522,372.926,478.72z
			 M439.708,461.913c0,9.206-7.49,16.696-16.696,16.696s-16.807-7.49-16.807-16.696V395.13c0-9.22-7.364-16.584-16.584-16.584
			h-66.783c-27.618,0-50.198-22.58-50.198-50.198v-66.783c0-9.206,7.601-16.696,16.807-16.696c9.206,0,16.696,7.49,16.696,16.696
			v66.783c0,9.22,7.475,16.696,16.696,16.696h66.783c27.618,0,50.087,22.469,50.087,50.087V461.913z"/>
	</g>
</g>
<g>
</g>
<g>
</g>
<g>
</g>
<g>
</g>
<g>
</g>
<g>
</g>
<g>
</g>
<g>
</g>
<g>
</g>
<g>
</g>
<g>
</g>
<g>
</g>
<g>
</g>
<g>
</g>
<g>
</g>
</svg>
