<?xml version="1.0" encoding="iso-8859-1"?>
<!-- Generator: Adobe Illustrator 19.0.0, SVG Export Plug-In . SVG Version: 6.00 Build 0)  -->
<svg version="1.1" id="Layer_1" xmlns="http://www.w3.org/2000/svg" xmlns:xlink="http://www.w3.org/1999/xlink" x="0px" y="0px"
	 viewBox="0 0 511.999 511.999" style="enable-background:new 0 0 511.999 511.999;" xml:space="preserve">
<g>
	<g>
		<path d="M359.918,440.951c-1.788-6.42-8.443-10.176-14.866-8.385c-1.08,0.302-2.165,0.596-3.258,0.886
			c-26.143,6.939-55.811,10.606-85.797,10.606c-47.795,0-93.688-9.241-125.911-25.353c-24.537-12.269-31.127-23.229-31.621-25.661
			c-0.099-6.581-5.464-11.887-12.069-11.887c-6.666,0-12.07,5.404-12.07,12.07c0,15.396,16.809,32.991,44.964,47.069
			c35.462,17.731,85.29,27.901,136.707,27.901c32.045,0,63.855-3.947,91.989-11.414c1.189-0.315,2.372-0.637,3.546-0.964
			C357.952,454.029,361.707,447.373,359.918,440.951z"/>
	</g>
</g>
<g>
	<g>
		<path d="M396.639,428.398c-0.157-0.772-0.386-1.533-0.688-2.257c-0.302-0.736-0.676-1.436-1.11-2.088
			c-0.447-0.664-0.941-1.279-1.497-1.835c-0.567-0.555-1.183-1.062-1.835-1.497c-0.664-0.435-1.364-0.809-2.088-1.11
			c-0.724-0.302-1.485-0.543-2.257-0.688c-1.557-0.314-3.162-0.314-4.719,0c-0.772,0.145-1.533,0.386-2.257,0.688
			c-0.724,0.302-1.424,0.676-2.088,1.11c-0.652,0.435-1.279,0.941-1.835,1.497c-0.555,0.555-1.062,1.171-1.497,1.835
			c-0.435,0.652-0.809,1.352-1.11,2.088c-0.302,0.724-0.531,1.485-0.688,2.257c-0.157,0.773-0.241,1.569-0.241,2.354
			c0,0.785,0.084,1.581,0.241,2.354c0.157,0.773,0.386,1.533,0.688,2.269c0.302,0.724,0.676,1.424,1.11,2.076
			c0.435,0.664,0.941,1.279,1.497,1.835c0.555,0.555,1.183,1.062,1.835,1.497c0.664,0.447,1.364,0.809,2.088,1.122
			c0.724,0.302,1.485,0.531,2.257,0.688c0.785,0.157,1.569,0.229,2.366,0.229c0.785,0,1.569-0.072,2.354-0.229
			c0.773-0.157,1.533-0.386,2.257-0.688c0.724-0.314,1.424-0.676,2.088-1.122c0.652-0.435,1.267-0.941,1.835-1.497
			c0.555-0.555,1.05-1.171,1.497-1.835c0.435-0.652,0.809-1.352,1.11-2.076c0.302-0.736,0.531-1.497,0.688-2.269
			c0.157-0.772,0.241-1.569,0.241-2.354C396.88,429.967,396.796,429.171,396.639,428.398z"/>
	</g>
</g>
<g>
	<g>
		<path d="M393.115,298.454c7.045-11.176,10.717-23.189,10.717-35.638c0-19.299-9.2-38.033-26.224-53.98
			c17.431-13.334,26.798-29.479,26.798-46.794c0-32.43-33.308-60.13-85.205-72.875c6.945-8.326,10.856-17.784,10.856-27.898
			C330.058,26.914,285.203,0,227.94,0c-57.262,0-102.119,26.914-102.119,61.272c0,16.518,10.388,31.303,27.518,42.217
			c-29.084,14.802-45.75,35.669-45.75,58.556c0,8.03,2.021,15.808,5.919,23.171c-39.263,19.087-61.461,46.842-61.461,77.602
			c0,20.227,9.701,39.302,27.815,55.506c-31.958,20.866-49.333,47.023-49.333,74.905c0,66.601,99.038,118.771,225.471,118.771
			S481.47,459.828,481.47,393.228C481.469,355.298,448.766,320.588,393.115,298.454z M149.962,61.272
			c0-17.563,32.023-37.131,77.978-37.131c45.954,0,77.978,19.568,77.978,37.131c0,8.249-7.066,16.938-19.32,23.836
			c-0.337,0.145-0.669,0.299-0.992,0.476c-13.339,7.231-30.68,11.62-49.5,12.606c-0.15,0.007-0.304,0.011-0.454,0.018
			c-1.185,0.058-2.373,0.107-3.569,0.139c-1.369,0.035-2.75,0.056-4.145,0.056c-1.69,0-3.376-0.033-5.056-0.088
			c-0.251-0.008-0.497-0.021-0.747-0.03c-12.21-0.466-24.102-2.387-34.696-5.64c-0.285-0.088-0.578-0.13-0.868-0.197
			C163.899,85.308,149.962,72.856,149.962,61.272z M184.082,116.808c0.238,0.065,0.484,0.121,0.723,0.186
			c1.422,0.389,2.862,0.759,4.32,1.109c0.11,0.027,0.22,0.051,0.329,0.077c10.056,2.389,20.937,3.865,32.385,4.251
			c0.158,0.006,0.315,0.016,0.472,0.021c1.861,0.058,3.736,0.092,5.626,0.092c1.649,0,3.29-0.028,4.927-0.072
			c0.639-0.017,1.27-0.048,1.905-0.072c0.973-0.037,1.946-0.076,2.914-0.129c0.791-0.043,1.576-0.097,2.361-0.15
			c0.785-0.053,1.568-0.11,2.348-0.174c0.873-0.071,1.741-0.148,2.606-0.233c0.667-0.065,1.331-0.136,1.996-0.209
			c0.927-0.101,1.853-0.204,2.77-0.32c0.578-0.072,1.151-0.154,1.727-0.233c0.967-0.132,1.935-0.263,2.891-0.41
			c0.49-0.076,0.974-0.163,1.462-0.244c1.559-0.257,3.102-0.534,4.629-0.832c0.886-0.173,1.774-0.342,2.651-0.527
			c0.494-0.106,0.978-0.222,1.468-0.332c1.055-0.235,2.107-0.476,3.148-0.731c0.333-0.082,0.66-0.17,0.991-0.253
			c1.243-0.315,2.474-0.643,3.695-0.987c0.124-0.035,0.247-0.071,0.371-0.106c7.375-2.1,14.325-4.717,20.673-7.84
			c49.744,7.499,86.798,30.121,86.798,53.357c0,12.298-10.522,24.97-29.046,35.191c-1.441,0.795-2.922,1.569-4.438,2.324
			c-0.431,0.215-0.881,0.416-1.318,0.628c-1.158,0.56-2.32,1.118-3.517,1.654c-0.336,0.151-0.684,0.292-1.022,0.441
			c-1.376,0.602-2.763,1.199-4.187,1.77c-0.094,0.037-0.192,0.074-0.286,0.111c-20.657,8.231-46.252,13.121-73.137,13.876
			c-0.19,0.005-0.378,0.016-0.567,0.021c-2.241,0.058-4.492,0.088-6.75,0.088c-1.913,0-3.815-0.028-5.713-0.069
			c-0.616-0.013-1.229-0.031-1.842-0.048c-1.318-0.037-2.631-0.086-3.941-0.142c-0.667-0.029-1.337-0.054-2.002-0.088
			c-1.703-0.087-3.399-0.19-5.086-0.308c-0.844-0.06-1.679-0.133-2.518-0.2c-0.946-0.076-1.891-0.156-2.832-0.241
			c-0.96-0.088-1.916-0.181-2.868-0.28c-0.833-0.087-1.661-0.181-2.49-0.275c-1.489-0.17-2.969-0.352-4.441-0.548
			c-0.982-0.13-1.966-0.26-2.94-0.402c-0.838-0.122-1.668-0.252-2.5-0.383c-1.042-0.163-2.08-0.332-3.112-0.508
			c-0.643-0.11-1.289-0.217-1.929-0.332c-17.452-3.143-33.396-8.164-46.796-14.863c-8.508-4.255-15.554-9.007-20.938-14.026
			c-0.157-0.147-0.313-0.296-0.468-0.444c-0.471-0.449-0.927-0.899-1.371-1.352c-0.326-0.333-0.647-0.666-0.961-1.003
			c-6.196-6.645-9.522-13.673-9.522-20.583C131.728,145.067,152.157,127.515,184.082,116.808z M76.189,262.818
			c-0.002-21.931,19.65-43.385,52.981-58.276c2.338,2.069,4.852,4.08,7.55,6.027c0.525,0.38,1.062,0.754,1.598,1.13
			c0.214,0.148,0.425,0.297,0.641,0.444c23.194,15.95,57.193,26.443,95.464,29.327c0.186,0.014,0.371,0.029,0.556,0.042
			c2.234,0.164,4.479,0.307,6.741,0.419c0.07,0.004,0.14,0.006,0.21,0.008c2.027,0.099,4.065,0.17,6.112,0.227
			c0.512,0.014,1.025,0.028,1.538,0.039c2.132,0.047,4.269,0.078,6.419,0.078c33.624,0,65.19-5.729,90.881-16.296
			c0.286-0.117,0.565-0.239,0.85-0.357c1.441-0.602,2.868-1.214,4.27-1.847c0.588-0.264,1.165-0.537,1.745-0.806
			c0.733-0.34,1.481-0.669,2.203-1.019c11.879,9.533,23.746,23.421,23.746,40.859c0,11.406-5.141,22.329-14.265,32.192
			c-0.285,0.247-0.575,0.485-0.838,0.762c-24.129,25.317-72.729,42.241-125.849,44.278c-0.141,0.005-0.284,0.01-0.426,0.014
			c-1.453,0.053-2.911,0.093-4.372,0.124c-0.385,0.008-0.77,0.017-1.155,0.024c-1.614,0.028-3.23,0.046-4.85,0.046
			c-1.358,0-2.713-0.012-4.066-0.03c-0.707-0.01-1.412-0.028-2.117-0.042c-0.594-0.012-1.189-0.024-1.782-0.04
			c-1.036-0.029-2.068-0.064-3.098-0.104c-0.191-0.007-0.383-0.013-0.573-0.022c-37.748-1.543-72.13-10.503-97.389-23.944
			c-3.79-2.039-7.411-4.19-10.831-6.459c-0.168-0.111-0.348-0.194-0.52-0.297C87.972,296.268,76.189,280.097,76.189,262.818z
			 M401.497,457.882c-38.663,19.332-90.336,29.977-145.499,29.977c-55.163,0-106.837-10.646-145.499-29.977
			c-35.481-17.741-55.832-41.307-55.832-64.653c0-21.412,16.388-42.401,46.327-59.563c0.247,0.147,0.503,0.29,0.752,0.437
			c0.648,0.381,1.299,0.762,1.959,1.137c0.439,0.25,0.884,0.496,1.326,0.744c0.429,0.239,0.847,0.482,1.281,0.718
			c0.122,0.066,0.25,0.127,0.372,0.193c1.708,0.928,3.45,1.832,5.218,2.717c0.418,0.209,0.835,0.418,1.255,0.625
			c1.646,0.809,3.318,1.597,5.013,2.368c0.62,0.282,1.243,0.561,1.87,0.839c1.52,0.671,3.054,1.331,4.61,1.972
			c0.88,0.365,1.769,0.719,2.66,1.074c1.044,0.414,2.097,0.82,3.155,1.219c1.473,0.559,2.957,1.103,4.456,1.635
			c0.414,0.146,0.832,0.29,1.247,0.433c2.194,0.764,4.414,1.499,6.662,2.205c0.041,0.012,0.082,0.025,0.123,0.039
			c14.499,4.547,30.073,7.893,46.328,9.947c1.061,0.135,2.123,0.27,3.19,0.393c1.2,0.139,2.402,0.269,3.609,0.393
			c1.756,0.182,3.517,0.351,5.287,0.503c0.899,0.076,1.801,0.146,2.704,0.215c2.06,0.159,4.127,0.302,6.203,0.42
			c0.584,0.033,1.17,0.059,1.755,0.088c2.363,0.121,4.734,0.221,7.115,0.287c0.276,0.007,0.554,0.011,0.832,0.018
			c2.647,0.068,5.301,0.107,7.966,0.107c2.502,0,4.992-0.041,7.476-0.1c0.729-0.017,1.457-0.037,2.185-0.059
			c2.042-0.063,4.077-0.144,6.105-0.247c1.057-0.053,2.11-0.117,3.164-0.18c1.535-0.094,3.068-0.194,4.594-0.311
			c1.308-0.099,2.613-0.206,3.914-0.321c0.727-0.065,1.45-0.138,2.175-0.208c30.389-2.902,58.737-10.251,82.496-21.47
			c0.041-0.019,0.082-0.039,0.122-0.058c3.209-1.518,6.362-3.083,9.397-4.741c10.376-5.669,19.357-11.969,26.877-18.763
			c50.09,18.047,80.885,46.534,80.885,75.289C457.329,416.576,436.98,440.14,401.497,457.882z"/>
	</g>
</g>
<g>
	<g>
		<path d="M199.715,172.57c-0.157-0.772-0.386-1.533-0.688-2.269c-0.302-0.724-0.676-1.424-1.11-2.076
			c-0.435-0.664-0.941-1.279-1.497-1.835s-1.171-1.062-1.835-1.497c-0.652-0.435-1.352-0.809-2.088-1.11
			c-0.724-0.302-1.485-0.543-2.257-0.688c-1.557-0.314-3.162-0.314-4.719,0c-0.76,0.145-1.521,0.386-2.257,0.688
			c-0.724,0.302-1.424,0.676-2.076,1.11c-0.664,0.435-1.279,0.941-1.835,1.497s-1.062,1.171-1.509,1.835
			c-0.435,0.652-0.809,1.352-1.11,2.076c-0.302,0.736-0.531,1.497-0.688,2.269c-0.157,0.773-0.229,1.569-0.229,2.354
			c0,3.174,1.292,6.289,3.537,8.534c0.555,0.556,1.171,1.063,1.835,1.497c0.652,0.435,1.352,0.809,2.076,1.11
			c0.736,0.302,1.497,0.543,2.257,0.688c0.785,0.157,1.581,0.241,2.366,0.241s1.581-0.085,2.354-0.241
			c0.772-0.145,1.533-0.386,2.257-0.688c0.736-0.302,1.436-0.676,2.088-1.11c0.664-0.435,1.279-0.941,1.835-1.497
			s1.062-1.171,1.497-1.835c0.435-0.652,0.809-1.352,1.11-2.088c0.302-0.724,0.531-1.485,0.688-2.257
			c0.157-0.773,0.241-1.569,0.241-2.354S199.872,173.342,199.715,172.57z"/>
	</g>
</g>
<g>
	<g>
		<path d="M355.325,153.785c-4.563-4.861-12.202-5.102-17.061-0.541c-1.739,1.633-7.031,5.919-18.56,10.446
			c-17.505,6.87-40.13,10.656-63.705,10.656c-10.085,0-20.061-0.695-29.65-2.064c-6.593-0.945-12.712,3.643-13.655,10.242
			c-0.944,6.598,3.642,12.711,10.242,13.654c10.716,1.532,21.841,2.308,33.064,2.308c26.521,0,52.277-4.377,72.525-12.324
			c14.128-5.545,22.079-11.389,26.261-15.315C359.645,166.284,359.886,158.646,355.325,153.785z"/>
	</g>
</g>
<g>
</g>
<g>
</g>
<g>
</g>
<g>
</g>
<g>
</g>
<g>
</g>
<g>
</g>
<g>
</g>
<g>
</g>
<g>
</g>
<g>
</g>
<g>
</g>
<g>
</g>
<g>
</g>
<g>
</g>
</svg>
